<svg width="6" height="9" viewBox="0 0 6 9" fill="none" xmlns="http://www.w3.org/2000/svg">
<path d="M5.06525 4.08557L1.76359 0.789736C1.70936 0.735062 1.64484 0.691665 1.57376 0.66205C1.50267 0.632435 1.42643 0.617188 1.34942 0.617188C1.27241 0.617188 1.19617 0.632435 1.12508 0.66205C1.054 0.691665 0.989482 0.735062 0.935254 0.789736C0.826608 0.899031 0.765625 1.04688 0.765625 1.20099C0.765625 1.35509 0.826608 1.50294 0.935254 1.61224L3.82275 4.5289L0.935254 7.4164C0.826608 7.5257 0.765625 7.67354 0.765625 7.82765C0.765625 7.98176 0.826608 8.12961 0.935254 8.2389C0.989279 8.29402 1.05371 8.33787 1.1248 8.36791C1.19589 8.39795 1.27224 8.41358 1.34942 8.4139C1.4266 8.41358 1.50295 8.39795 1.57404 8.36791C1.64514 8.33787 1.70956 8.29402 1.76359 8.2389L5.06525 4.94307C5.12446 4.88844 5.17172 4.82215 5.20404 4.74836C5.23636 4.67457 5.25305 4.59488 5.25305 4.51432C5.25305 4.43376 5.23636 4.35407 5.20404 4.28028C5.17172 4.20649 5.12446 4.14019 5.06525 4.08557Z" fill="#E9336B"/>
</svg>
