<svg id="SvgjsSvg1001" width="288" height="288" xmlns="http://www.w3.org/2000/svg" version="1.1" viewBox="30 30 227 227" xmlns:xlink="http://www.w3.org/1999/xlink" xmlns:svgjs="http://svgjs.com/svgjs"><path id="SvgjsPath1051" d="M 144,0 C 5,0 0,5 0,144 0,283 5,288 144,288 283,288 288,283 288,144 288,5 283,0 144,0 Z" transform="matrix(0.7916,0,0,0.7916,30.009600000000006,30.009600000000006)" fill="#eee9ff"></path><defs id="SvgjsDefs1002"></defs><g id="SvgjsG1008" transform="matrix(0.56,0,0,0.56,63.26013272047042,63.50089218139648)"><svg xmlns="http://www.w3.org/2000/svg" fill="none" viewBox="0 0 194 155" width="288" height="288"><g clip-path="url(#a)"><path fill="url(#b)" d="M140.25 0.838379H53.4413C48.6991 0.838379 44.8635 4.20427 44.8635 8.35619V49.3405C44.8635 53.4924 48.7023 56.8583 53.4413 56.8583H90.4694L96.8457 67.7583L102.084 56.8583H140.247C144.986 56.8583 148.828 53.4924 148.828 49.3405V8.35619C148.831 4.20427 144.989 0.838379 140.25 0.838379ZM117.821 40.2343H80.4435V35.9258H117.821V40.2343ZM135.671 29.3702H62.5932V25.0617H135.671V29.3702ZM135.671 18.5028H62.5932V14.1943H135.671V18.5028Z"></path><path fill="url(#c)" d="M96.8489 72.856C83.9202 72.856 73.4312 83.3352 73.4312 96.2737C73.4312 109.202 83.9202 119.685 96.8489 119.685C109.781 119.685 120.263 109.206 120.263 96.2737C120.263 83.3352 109.781 72.856 96.8489 72.856Z"></path><path fill="url(#d)" d="M110.4 121.893H83.2938C71.1349 121.893 61.2786 131.753 61.2786 143.908V154.593H132.409V143.908C132.412 131.753 122.559 121.893 110.4 121.893Z"></path><path fill="url(#e)" d="M176.786 41.614V69.6696C176.786 72.2658 174.379 74.3793 171.417 74.3793H155.501L156.222 82.432L148.231 74.3793H121.747C118.783 74.3793 116.379 72.2658 116.379 69.6696V60.521H140.247C142.419 60.521 144.464 60.0025 146.232 59.0892C146.235 59.0892 146.238 59.086 146.241 59.086C148.489 58.1923 150.256 56.5322 151.114 54.4905C151.114 54.4872 151.117 54.484 151.117 54.4807C151.991 52.9413 152.487 51.1964 152.487 49.3438V36.9109H171.414C174.379 36.9109 176.786 39.0178 176.786 41.614Z"></path><path fill="url(#f)" d="M77.3124 60.521V69.6696C77.3124 72.2658 74.9087 74.3793 71.9439 74.3793H45.4604L37.4697 82.432L38.1905 74.3793H22.2742C19.3128 74.3793 16.9058 72.2658 16.9058 69.6696V41.614C16.9058 39.0178 19.3128 36.9109 22.2742 36.9109H41.2008V49.3406C41.2008 51.1931 41.6966 52.9413 42.5739 54.4807C42.5739 54.484 42.5772 54.484 42.5772 54.4872C43.4317 56.5289 45.1962 58.1858 47.4369 59.0795C49.2111 59.9959 51.2626 60.521 53.4413 60.521H77.3124Z"></path><path fill="url(#g)" d="M163.335 89.0822C153.987 89.6627 146.375 97.2751 145.794 106.626C145.116 117.539 153.766 126.599 164.538 126.599C164.884 126.599 165.227 126.59 165.569 126.57H187.979C188.237 126.57 188.312 126.218 188.07 126.12C185.301 124.975 183.312 121.87 183.312 118.208V108.178H183.302L183.312 107.823C183.312 97.0533 174.251 88.4071 163.335 89.0822Z"></path><path fill="url(#h)" d="M175.406 128.374H153.664C143.922 128.374 136.016 136.276 136.016 146.025V154.593H193.057V146.025C193.057 136.276 185.151 128.374 175.406 128.374Z"></path><path fill="url(#i)" d="M30.3594 89.0822C39.7069 89.6627 47.3193 97.2751 47.8998 106.626C48.5782 117.539 39.9287 126.599 29.1559 126.599C28.8101 126.599 28.4677 126.59 28.1252 126.57H5.71204C5.45438 126.57 5.37936 126.218 5.62071 126.12C8.38974 124.975 10.3793 121.87 10.3793 118.208V108.178H10.3891L10.3793 107.823C10.3825 97.0533 19.443 88.4071 30.3594 89.0822Z"></path><path fill="url(#j)" d="M18.2886 128.374H40.0299C49.772 128.374 57.678 136.276 57.678 146.025V154.593H0.637207V146.025C0.637207 136.276 8.54314 128.374 18.2886 128.374Z"></path></g><defs><linearGradient id="b" x1="96.847" x2="96.847" y1="-.312" y2="157.854" gradientUnits="userSpaceOnUse"><stop stop-color="#9e579d" class="stopColor8761A6 svgShape"></stop><stop offset="1" stop-color="#574b90" class="stopColor3A348B svgShape"></stop></linearGradient><linearGradient id="c" x1="96.847" x2="96.847" y1="-.312" y2="157.854" gradientUnits="userSpaceOnUse"><stop stop-color="#9e579d" class="stopColor8761A6 svgShape"></stop><stop offset="1" stop-color="#574b90" class="stopColor3A348B svgShape"></stop></linearGradient><linearGradient id="d" x1="96.846" x2="96.846" y1="-.312" y2="157.854" gradientUnits="userSpaceOnUse"><stop stop-color="#9e579d" class="stopColor8761A6 svgShape"></stop><stop offset="1" stop-color="#574b90" class="stopColor3A348B svgShape"></stop></linearGradient><linearGradient id="e" x1="146.584" x2="146.584" y1="-.312" y2="157.854" gradientUnits="userSpaceOnUse"><stop stop-color="#9e579d" class="stopColor8761A6 svgShape"></stop><stop offset="1" stop-color="#574b90" class="stopColor3A348B svgShape"></stop></linearGradient><linearGradient id="f" x1="47.11" x2="47.11" y1="-.312" y2="157.854" gradientUnits="userSpaceOnUse"><stop stop-color="#9e579d" class="stopColor8761A6 svgShape"></stop><stop offset="1" stop-color="#574b90" class="stopColor3A348B svgShape"></stop></linearGradient><linearGradient id="g" x1="166.988" x2="166.988" y1="-.312" y2="157.854" gradientUnits="userSpaceOnUse"><stop stop-color="#9e579d" class="stopColor8761A6 svgShape"></stop><stop offset="1" stop-color="#574b90" class="stopColor3A348B svgShape"></stop></linearGradient><linearGradient id="h" x1="164.536" x2="164.536" y1="-.312" y2="157.854" gradientUnits="userSpaceOnUse"><stop stop-color="#9e579d" class="stopColor8761A6 svgShape"></stop><stop offset="1" stop-color="#574b90" class="stopColor3A348B svgShape"></stop></linearGradient><linearGradient id="i" x1="26.706" x2="26.706" y1="-.312" y2="157.854" gradientUnits="userSpaceOnUse"><stop stop-color="#9e579d" class="stopColor8761A6 svgShape"></stop><stop offset="1" stop-color="#574b90" class="stopColor3A348B svgShape"></stop></linearGradient><linearGradient id="j" x1="29.158" x2="29.158" y1="-.312" y2="157.854" gradientUnits="userSpaceOnUse"><stop stop-color="#9e579d" class="stopColor8761A6 svgShape"></stop><stop offset="1" stop-color="#574b90" class="stopColor3A348B svgShape"></stop></linearGradient><clipPath id="a"><rect width="192.42" height="153.755" fill="#fc85ae" transform="translate(.637 .838)" class="colorfff svgShape"></rect></clipPath></defs></svg></g></svg>