<svg xmlns="http://www.w3.org/2000/svg" xmlns:xlink="http://www.w3.org/1999/xlink" xmlns:svgjs="http://svgjs.com/svgjs" id="SvgjsSvg1198" version="1.1" viewBox="30.01 30.01 227.98 227.98"><path id="SvgjsPath1294" d="M 144,0 C 5,0 0,5 0,144 0,283 5,288 144,288 283,288 288,283 288,144 288,5 283,0 144,0 Z" transform="matrix(0.7916,0,0,0.7916,30.009600000000006,30.009600000000006)" fill="#241d5b"/><defs id="SvgjsDefs1199"/><g id="SvgjsG1200" transform="matrix(0.4652,0,0,0.4652,77.0200764755249,71.94296249656676)"><svg xmlns="http://www.w3.org/2000/svg" fill="none" viewBox="0 0 117 90 " width="288" height="288"><g filter="url(#a)"><path fill="url(#b)" d="M69.5635 6.32567H40.0335C39.4407 6.32567 38.9553 5.84493 38.9553 5.24752V1.75637C38.9553 1.16362 39.4361 0.678223 40.0335 0.678223H69.5635C70.1563 0.678223 70.6417 1.15895 70.6417 1.75637V5.24752C70.637 5.84493 70.1563 6.32567 69.5635 6.32567Z"/><path fill="url(#c)" d="M111.831 18.0454H40.0335C39.4407 18.0454 38.9553 17.5647 38.9553 16.9672V13.4761C38.9553 12.8833 39.4361 12.3979 40.0335 12.3979H111.831C112.423 12.3979 112.909 12.8787 112.909 13.4761V16.9672C112.904 17.56 112.423 18.0454 111.831 18.0454Z"/><path fill="url(#d)" d="M101.32 29.7602H40.0335C39.4407 29.7602 38.9553 29.2795 38.9553 28.6821V25.1909C38.9553 24.5982 39.4361 24.1128 40.0335 24.1128H101.32C101.913 24.1128 102.398 24.5935 102.398 25.1909V28.6821C102.398 29.2795 101.917 29.7602 101.32 29.7602Z"/><path fill="url(#e)" d="M90.8932 41.4753H40.0335C39.4407 41.4753 38.9553 40.9946 38.9553 40.3972V36.906C38.9553 36.3133 39.4361 35.8279 40.0335 35.8279H90.8932C91.4859 35.8279 91.9713 36.3086 91.9713 36.906V40.3972C91.9713 40.9946 91.4906 41.4753 90.8932 41.4753Z"/><path fill="url(#f)" d="M69.5635 63.477H40.0335C39.4407 63.477 38.9553 62.9963 38.9553 62.3989V58.9077C38.9553 58.315 39.4361 57.8296 40.0335 57.8296H69.5635C70.1563 57.8296 70.6417 58.3103 70.6417 58.9077V62.3989C70.637 62.9916 70.1563 63.477 69.5635 63.477Z"/><path fill="url(#g)" d="M111.831 75.1919H40.0335C39.4407 75.1919 38.9553 74.7111 38.9553 74.1137V70.6226C38.9553 70.0298 39.4361 69.5444 40.0335 69.5444H111.831C112.423 69.5444 112.909 70.0252 112.909 70.6226V74.1137C112.904 74.7111 112.423 75.1919 111.831 75.1919Z"/><path fill="url(#h)" d="M101.32 86.907H40.0335C39.4407 86.907 38.9553 86.4262 38.9553 85.8288V82.3377C38.9553 81.7449 39.4361 81.2595 40.0335 81.2595H101.32C101.913 81.2595 102.398 81.7403 102.398 82.3377V85.8288C102.398 86.4262 101.917 86.907 101.32 86.907Z"/><path fill="url(#i)" d="M90.8932 98.6218H40.0335C39.4407 98.6218 38.9553 98.1411 38.9553 97.5437V94.0525C38.9553 93.4598 39.4361 92.9744 40.0335 92.9744H90.8932C91.4859 92.9744 91.9713 93.4551 91.9713 94.0525V97.5437C91.9713 98.1411 91.4906 98.6218 90.8932 98.6218Z"/><path fill="#dadada" d="M5.6167.682861H31.665C32.5004.682861 33.1772 1.35962 33.1772 2.19507V5.79357C33.1772 6.62902 32.5004 7.30577 31.665 7.30577H5.6167C4.78125 7.30577 4.10449 6.62902 4.10449 5.79357V2.19507C4.10449 1.36429 4.78125.682861 5.6167.682861zM12.2162 10.3723H32.3137C32.7897 10.3723 33.1771 10.7597 33.1771 11.2358V13.5601C33.1771 14.0362 32.7897 14.4235 32.3137 14.4235H12.2162C11.7402 14.4235 11.3528 14.0362 11.3528 13.5601V11.2358C11.3528 10.7597 11.7402 10.3723 12.2162 10.3723zM5.6167 57.8342H31.665C32.5004 57.8342 33.1772 58.511 33.1772 59.3464V62.9449C33.1772 63.7804 32.5004 64.4571 31.665 64.4571H5.6167C4.78125 64.4571 4.10449 63.7804 4.10449 62.9449V59.3464C4.10449 58.511 4.78125 57.8342 5.6167 57.8342zM12.2162 67.5237H32.3137C32.7897 67.5237 33.1771 67.9111 33.1771 68.3871V70.7115C33.1771 71.1875 32.7897 71.5749 32.3137 71.5749H12.2162C11.7402 71.5749 11.3528 71.1875 11.3528 70.7115V68.3871C11.3528 67.9111 11.7402 67.5237 12.2162 67.5237z" class="colorDADADA svgShape"/></g><defs><linearGradient id="b" x1="38.957" x2="70.638" y1="3.506" y2="3.506" gradientUnits="userSpaceOnUse"><stop stop-color="#dadada" class="stopColorDADADA svgShape"/><stop offset=".342" stop-color="#dcdcdc" class="stopColorDCDCDC svgShape"/><stop offset=".508" stop-color="#e4e4e4" class="stopColorE4E4E4 svgShape"/><stop offset=".636" stop-color="#f1f1f1" class="stopColorF1F1F1 svgShape"/><stop offset=".724" stop-color="#ffffff" class="stopColorfff svgShape"/><stop offset=".754" stop-color="#f5f5f5" class="stopColorF5F5F5 svgShape"/><stop offset=".816" stop-color="#e6e6e6" class="stopColorE6E6E6 svgShape"/><stop offset=".89" stop-color="#dddddd" class="stopColorDDD svgShape"/><stop offset="1" stop-color="#dadada" class="stopColorDADADA svgShape"/></linearGradient><linearGradient id="c" x1="38.957" x2="112.906" y1="15.223" y2="15.223" gradientUnits="userSpaceOnUse"><stop stop-color="#dadada" class="stopColorDADADA svgShape"/><stop offset=".342" stop-color="#dcdcdc" class="stopColorDCDCDC svgShape"/><stop offset=".508" stop-color="#e4e4e4" class="stopColorE4E4E4 svgShape"/><stop offset=".636" stop-color="#f1f1f1" class="stopColorF1F1F1 svgShape"/><stop offset=".724" stop-color="#ffffff" class="stopColorfff svgShape"/><stop offset=".754" stop-color="#f5f5f5" class="stopColorF5F5F5 svgShape"/><stop offset=".816" stop-color="#e6e6e6" class="stopColorE6E6E6 svgShape"/><stop offset=".89" stop-color="#dddddd" class="stopColorDDD svgShape"/><stop offset="1" stop-color="#dadada" class="stopColorDADADA svgShape"/></linearGradient><linearGradient id="d" x1="38.957" x2="102.399" y1="26.939" y2="26.939" gradientUnits="userSpaceOnUse"><stop stop-color="#dadada" class="stopColorDADADA svgShape"/><stop offset=".342" stop-color="#dcdcdc" class="stopColorDCDCDC svgShape"/><stop offset=".508" stop-color="#e4e4e4" class="stopColorE4E4E4 svgShape"/><stop offset=".636" stop-color="#f1f1f1" class="stopColorF1F1F1 svgShape"/><stop offset=".724" stop-color="#ffffff" class="stopColorfff svgShape"/><stop offset=".754" stop-color="#f5f5f5" class="stopColorF5F5F5 svgShape"/><stop offset=".816" stop-color="#e6e6e6" class="stopColorE6E6E6 svgShape"/><stop offset=".89" stop-color="#dddddd" class="stopColorDDD svgShape"/><stop offset="1" stop-color="#dadada" class="stopColorDADADA svgShape"/></linearGradient><linearGradient id="e" x1="38.957" x2="91.971" y1="38.656" y2="38.656" gradientUnits="userSpaceOnUse"><stop stop-color="#dadada" class="stopColorDADADA svgShape"/><stop offset=".342" stop-color="#dcdcdc" class="stopColorDCDCDC svgShape"/><stop offset=".508" stop-color="#e4e4e4" class="stopColorE4E4E4 svgShape"/><stop offset=".636" stop-color="#f1f1f1" class="stopColorF1F1F1 svgShape"/><stop offset=".724" stop-color="#ffffff" class="stopColorfff svgShape"/><stop offset=".754" stop-color="#f5f5f5" class="stopColorF5F5F5 svgShape"/><stop offset=".816" stop-color="#e6e6e6" class="stopColorE6E6E6 svgShape"/><stop offset=".89" stop-color="#dddddd" class="stopColorDDD svgShape"/><stop offset="1" stop-color="#dadada" class="stopColorDADADA svgShape"/></linearGradient><linearGradient id="f" x1="38.957" x2="70.638" y1="60.654" y2="60.654" gradientUnits="userSpaceOnUse"><stop stop-color="#dadada" class="stopColorDADADA svgShape"/><stop offset=".342" stop-color="#dcdcdc" class="stopColorDCDCDC svgShape"/><stop offset=".508" stop-color="#e4e4e4" class="stopColorE4E4E4 svgShape"/><stop offset=".636" stop-color="#f1f1f1" class="stopColorF1F1F1 svgShape"/><stop offset=".724" stop-color="#ffffff" class="stopColorfff svgShape"/><stop offset=".754" stop-color="#f5f5f5" class="stopColorF5F5F5 svgShape"/><stop offset=".816" stop-color="#e6e6e6" class="stopColorE6E6E6 svgShape"/><stop offset=".89" stop-color="#dddddd" class="stopColorDDD svgShape"/><stop offset="1" stop-color="#dadada" class="stopColorDADADA svgShape"/></linearGradient><linearGradient id="g" x1="38.957" x2="112.906" y1="72.37" y2="72.37" gradientUnits="userSpaceOnUse"><stop stop-color="#dadada" class="stopColorDADADA svgShape"/><stop offset=".342" stop-color="#dcdcdc" class="stopColorDCDCDC svgShape"/><stop offset=".508" stop-color="#e4e4e4" class="stopColorE4E4E4 svgShape"/><stop offset=".636" stop-color="#f1f1f1" class="stopColorF1F1F1 svgShape"/><stop offset=".724" stop-color="#ffffff" class="stopColorfff svgShape"/><stop offset=".754" stop-color="#f5f5f5" class="stopColorF5F5F5 svgShape"/><stop offset=".816" stop-color="#e6e6e6" class="stopColorE6E6E6 svgShape"/><stop offset=".89" stop-color="#dddddd" class="stopColorDDD svgShape"/><stop offset="1" stop-color="#dadada" class="stopColorDADADA svgShape"/></linearGradient><linearGradient id="h" x1="38.957" x2="102.399" y1="84.087" y2="84.087" gradientUnits="userSpaceOnUse"><stop stop-color="#dadada" class="stopColorDADADA svgShape"/><stop offset=".342" stop-color="#dcdcdc" class="stopColorDCDCDC svgShape"/><stop offset=".508" stop-color="#e4e4e4" class="stopColorE4E4E4 svgShape"/><stop offset=".636" stop-color="#f1f1f1" class="stopColorF1F1F1 svgShape"/><stop offset=".724" stop-color="#ffffff" class="stopColorfff svgShape"/><stop offset=".754" stop-color="#f5f5f5" class="stopColorF5F5F5 svgShape"/><stop offset=".816" stop-color="#e6e6e6" class="stopColorE6E6E6 svgShape"/><stop offset=".89" stop-color="#dddddd" class="stopColorDDD svgShape"/><stop offset="1" stop-color="#dadada" class="stopColorDADADA svgShape"/></linearGradient><linearGradient id="i" x1="38.957" x2="91.971" y1="95.803" y2="95.803" gradientUnits="userSpaceOnUse"><stop stop-color="#dadada" class="stopColorDADADA svgShape"/><stop offset=".342" stop-color="#dcdcdc" class="stopColorDCDCDC svgShape"/><stop offset=".508" stop-color="#e4e4e4" class="stopColorE4E4E4 svgShape"/><stop offset=".636" stop-color="#f1f1f1" class="stopColorF1F1F1 svgShape"/><stop offset=".724" stop-color="#ffffff" class="stopColorfff svgShape"/><stop offset=".754" stop-color="#f5f5f5" class="stopColorF5F5F5 svgShape"/><stop offset=".816" stop-color="#e6e6e6" class="stopColorE6E6E6 svgShape"/><stop offset=".89" stop-color="#dddddd" class="stopColorDDD svgShape"/><stop offset="1" stop-color="#dadada" class="stopColorDADADA svgShape"/></linearGradient><filter id="a" width="116.804" height="105.944" x=".104" y=".678" color-interpolation-filters="sRGB" filterUnits="userSpaceOnUse"><feFlood flood-opacity="0" result="BackgroundImageFix"/><feColorMatrix in="SourceAlpha" result="hardAlpha" values="0 0 0 0 0 0 0 0 0 0 0 0 0 0 0 0 0 0 127 0"/><feOffset dy="4"/><feGaussianBlur stdDeviation="2"/><feComposite in2="hardAlpha" operator="out"/><feColorMatrix values="0 0 0 0 0 0 0 0 0 0 0 0 0 0 0 0 0 0 0.25 0"/><feBlend in2="BackgroundImageFix" result="effect1_dropShadow_2000_237"/><feBlend in="SourceGraphic" in2="effect1_dropShadow_2000_237" result="shape"/></filter></defs></svg></g></svg>