<svg width="65" height="65" viewBox="0 0 65 65" fill="none" xmlns="http://www.w3.org/2000/svg">
<path d="M47.1159 18.0748C45.302 17.6165 43.3997 17.3818 41.4531 17.3818H17.1984V47.607H0V0H24.2437C35.3037 0 44.5831 7.69046 47.1159 18.0748Z" fill="#0866FF"/>
<path d="M65.0002 41.1907C65.0002 47.7634 62.3679 53.7101 58.0987 58.0248C53.8406 62.3283 47.9456 64.9998 41.4423 64.9998H17.1986V47.6069H24.2439C30.7472 47.6069 36.6311 44.9465 40.9003 40.6318C45.1585 36.3283 47.8018 30.3704 47.8018 23.7978C47.8018 21.8193 47.5585 19.8967 47.1161 18.0635C57.3798 20.6344 65.0002 30.0127 65.0002 41.1907Z" fill="#F1B33A"/>
</svg>
