<svg width="65" height="65" viewBox="0 0 65 65" fill="none" xmlns="http://www.w3.org/2000/svg">
<path d="M47.1159 18.0748C45.302 17.6165 43.3997 17.3818 41.4531 17.3818H17.1984V47.6071H0V0H24.2437C35.3037 0 44.5831 7.69046 47.1159 18.0748Z" fill="#FDFDFD"/>
<path d="M65.0001 41.1907C65.0001 47.7634 62.3678 53.7101 58.0986 58.0248C53.8405 62.3283 47.9455 64.9999 41.4421 64.9999H17.1985V47.6069H24.2437C30.7471 47.6069 36.631 44.9465 40.9002 40.6318C45.1583 36.3283 47.8017 30.3704 47.8017 23.7978C47.8017 21.8193 47.5584 19.8967 47.116 18.0635C57.3797 20.6344 65.0001 30.0127 65.0001 41.1907Z" fill="#F7F7F7"/>
</svg>
