<svg width="11" height="12" viewBox="0 0 11 12" fill="none" xmlns="http://www.w3.org/2000/svg">
<path d="M7.22799 5.80728L4.01966 3.74478C3.94939 3.69891 3.85853 3.69644 3.78602 3.73627C3.74984 3.75595 3.71964 3.78503 3.6986 3.82044C3.67757 3.85585 3.66648 3.89628 3.6665 3.93747V8.06247C3.6665 8.14639 3.71216 8.22339 3.78602 8.26367C3.81966 8.282 3.85736 8.29162 3.89568 8.29164C3.93865 8.29164 3.98207 8.27955 4.01966 8.25516L7.22799 6.19266C7.29335 6.1506 7.33318 6.07785 7.33318 5.99997C7.33318 5.92209 7.29335 5.84936 7.22799 5.80728ZM4.12483 7.64262V4.35732L6.68014 5.99997L4.12483 7.64262Z" fill="black"/>
<rect x="0.25" y="0.75" width="10.5" height="10.5" stroke="black" stroke-width="0.5"/>
</svg>
