<svg width="44" height="31" viewBox="0 0 44 31" fill="none"
                                                xmlns="http://www.w3.org/2000/svg">
                                                <path
                                                    d="M7.73818 30.4448C5.15684 30.4448 3.26118 29.7995 2.05118 28.5088C0.921844 27.1375 0.357178 25.4032 0.357178 23.3058V21.6118C0.357178 18.3045 1.32518 14.6745 3.26118 10.7218C5.19718 6.68849 7.89951 3.17949 11.3682 0.194824H19.4752C17.0552 2.77616 15.0788 5.23649 13.5462 7.57582C12.0942 9.83449 11.0455 12.3755 10.4002 15.1988C12.0135 15.6022 13.1832 16.3685 13.9092 17.4978C14.7158 18.6272 15.1192 19.9985 15.1192 21.6118V23.3058C15.1192 25.4032 14.5142 27.1375 13.3042 28.5088C12.1748 29.7995 10.3195 30.4448 7.73818 30.4448ZM32.1802 30.4448C29.5988 30.4448 27.7032 29.7995 26.4932 28.5088C25.3638 27.1375 24.7992 25.4032 24.7992 23.3058V21.6118C24.7992 18.3045 25.7672 14.6745 27.7032 10.7218C29.6392 6.68849 32.3415 3.17949 35.8102 0.194824H43.9172C41.4972 2.77616 39.5208 5.23649 37.9882 7.57582C36.5362 9.83449 35.4875 12.3755 34.8422 15.1988C36.4555 15.6022 37.6252 16.3685 38.3512 17.4978C39.1578 18.6272 39.5612 19.9985 39.5612 21.6118V23.3058C39.5612 25.4032 38.9562 27.1375 37.7462 28.5088C36.6168 29.7995 34.7615 30.4448 32.1802 30.4448Z"
                                                    fill="#3D3D4E" />
                                            </svg>